<svg xmlns="http://www.w3.org/2000/svg" width="222.647" height="37.43" viewBox="0 0 222.647 37.43"><defs><style>.a{fill:#fff;}</style></defs><g transform="translate(3559 14308.715)"><path class="a" d="M1701.092-185.924a4.464,4.464,0,0,0-2.761-.964,4.56,4.56,0,0,0-4.607,4.512v0a4.562,4.562,0,0,0,4.517,4.607h0a4.563,4.563,0,0,0,4.608-4.518h0a4.565,4.565,0,0,0-1.758-3.639" transform="translate(-5224.439 -14107.624)"/><path class="a" d="M1642.719-169.173l-3.2,3.2a7.707,7.707,0,0,1-4.228,2.178l9.712,9.716a4.5,4.5,0,0,0,2.436,1.249,4.019,4.019,0,0,0,1.871-.085,4.494,4.494,0,0,0,3.412-4.358,4.5,4.5,0,0,0-1.323-3.2Z" transform="translate(-5188.494 -14118.522)"/><path class="a" d="M1627.931-201.9l3.2-3.2,2.326-2.322,6.829-6.829,1.827-1.83a4.524,4.524,0,0,0,0-6.39,4.8,4.8,0,0,0-3.2-1.324,4.565,4.565,0,0,0-2.093.538,4.6,4.6,0,0,0-.468.271,4.861,4.861,0,0,0-.631.515l-14.173,14.17a4.478,4.478,0,0,0-1.282,2.762c-.02.144-.033.289-.039.435,0,.094.021.188.029.279a4.466,4.466,0,0,0,1.3,2.906c.047.049.1.08.145.125a4.458,4.458,0,0,0,2.087,1.091,4.335,4.335,0,0,0,3.2-.506,4.448,4.448,0,0,0,.944-.7" transform="translate(-5179.227 -14084.922)"/><path class="a" d="M1803.953-193.593h.231a4.924,4.924,0,0,1,3.64,1.387,1.05,1.05,0,0,0,.743.3,1.033,1.033,0,0,0,.745-.317l.65-.671a1.034,1.034,0,0,0,0-1.433,7.818,7.818,0,0,0-5.809-2.3,8.143,8.143,0,0,0-8.405,7.872v.372a8.143,8.143,0,0,0,8.026,8.257h.4a7.858,7.858,0,0,0,5.809-2.316,1.034,1.034,0,0,0,0-1.444l-.651-.67a1.03,1.03,0,0,0-1.458-.034h0l-.015.014a4.922,4.922,0,0,1-3.636,1.406,5.162,5.162,0,0,1-5.335-4.98v-.233a5.161,5.161,0,0,1,5.069-5.21" transform="translate(-5287.2 -14101.631)"/><path class="a" d="M1867.875-196.626h-.368a8.157,8.157,0,0,0-8.425,7.876v.368a8.158,8.158,0,0,0,8.05,8.256h.376a8.159,8.159,0,0,0,8.426-7.872v-.367a8.158,8.158,0,0,0-8.051-8.257Zm-.134,13.466h-.231a5.091,5.091,0,0,1-5.311-4.862h0v-.352a5.093,5.093,0,0,1,4.954-5.214h.351a5.146,5.146,0,0,1,5.3,4.979v.233a5.142,5.142,0,0,1-5.066,5.215Z" transform="translate(-5326.162 -14101.631)"/><path class="a" d="M1943.342-185.6a5.385,5.385,0,0,0,2.769-4.9c0-3.542-2.657-5.829-6.766-5.829h-5.083a1.032,1.032,0,0,0-1.033,1.031h0v14.215a1.032,1.032,0,0,0,1.02,1.042h1.044a1.033,1.033,0,0,0,1.033-1.033v-3.62h3.024c.3,0,.586-.013.894-.039l3.037,4.256a1.03,1.03,0,0,0,.845.434h1.178a1.03,1.03,0,0,0,.927-.565,1.032,1.032,0,0,0-.082-1.079Zm-4-2.085h-3.02v-5.637h3.025c3.63,0,3.63,2.12,3.63,2.819s0,2.829-3.633,2.829Z" transform="translate(-5371.775 -14101.819)"/><path class="a" d="M2003.129-196.325h-11.265a1.044,1.044,0,0,0-1.044,1.031v.931a1.046,1.046,0,0,0,1.044,1.044h4.08v12.238a1.031,1.031,0,0,0,1.02,1.042h1.044a1.031,1.031,0,0,0,1.031-1.031V-193.3h4.075a1.033,1.033,0,0,0,1.033-1.033v-.931a1.033,1.033,0,0,0-1.033-1.033Z" transform="translate(-5407.203 -14101.819)"/><path class="a" d="M2055.221-196.323h-1.032a1.032,1.032,0,0,0-1.044,1.02v14.23a1.049,1.049,0,0,0,1.044,1.044h1.032a1.032,1.032,0,0,0,1.032-1.031h0v-14.212a1.031,1.031,0,0,0-1.031-1.033h0Z" transform="translate(-5445.542 -14101.82)"/><path class="a" d="M2105.137-184.548a1.055,1.055,0,0,0-.745-.314,1.04,1.04,0,0,0-.731.3,4.914,4.914,0,0,1-3.633,1.408,5.159,5.159,0,0,1-5.336-4.976h0v-.233a5.16,5.16,0,0,1,5.105-5.214h.224a4.927,4.927,0,0,1,3.639,1.385,1.032,1.032,0,0,0,1.458,0h0l.017-.018.652-.672a1.034,1.034,0,0,0,0-1.444,7.845,7.845,0,0,0-5.811-2.294,8.144,8.144,0,0,0-8.4,7.872v.365a8.149,8.149,0,0,0,8.035,8.254H2100a7.848,7.848,0,0,0,5.82-2.316,1.032,1.032,0,0,0-.014-1.444Z" transform="translate(-5469.183 -14101.633)"/><path class="a" d="M2163.761-196.631h-.365a8.159,8.159,0,0,0-8.428,7.874v.367a8.159,8.159,0,0,0,8.06,8.257h.375a8.153,8.153,0,0,0,8.424-7.872v-.37a8.159,8.159,0,0,0-8.051-8.257Zm-.132,13.467h-.231a5.1,5.1,0,0,1-5.315-4.863v-.352a5.1,5.1,0,0,1,4.955-5.214h.353a5.139,5.139,0,0,1,5.29,4.976v.232a5.141,5.141,0,0,1-5.064,5.215Z" transform="translate(-5508.18 -14101.628)"/></g></svg>