<svg width="193" height="193" viewBox="0 0 193 193" fill="none" xmlns="http://www.w3.org/2000/svg">
<g filter="url(#filter0_d_603_41)">
<path d="M179.746 74.7788C175.871 71.7118 171.077 70.0379 166.135 70.0264C160.809 69.9799 155.64 71.8269 151.55 75.2377C147.46 78.6486 144.715 83.4016 143.804 88.6487C142.893 93.8958 143.876 99.2958 146.578 103.885C149.279 108.475 153.524 111.956 158.554 113.706C163.584 115.457 169.072 115.364 174.039 113.444C179.007 111.524 183.131 107.901 185.676 103.223C188.22 98.5443 189.02 93.1141 187.931 87.9009C186.843 82.6876 183.939 78.0304 179.735 74.7601" fill="white"/>
<path d="M69.1884 103.641L53.4157 119.413C47.7761 125.1 40.4815 128.858 32.5762 130.148L80.4401 178.039C83.7102 181.291 87.9122 183.443 92.4622 184.197C95.5262 184.785 98.686 184.641 101.683 183.775C105.499 182.824 108.993 180.877 111.809 178.132C114.624 175.388 116.66 171.945 117.709 168.155C118.757 164.366 118.78 160.366 117.775 156.565C116.77 152.764 114.773 149.298 111.989 146.522L69.1884 103.641Z" fill="white"/>
<path d="M41.9807 107.93L57.7571 92.1583L69.222 80.6942L102.876 47.042L111.884 38.0232C116.055 33.8427 118.397 28.1789 118.397 22.274C118.397 16.3691 116.055 10.7053 111.884 6.52478C107.621 2.46286 101.996 0.136432 96.108 0C92.5064 0.0449084 88.9682 0.954083 85.7911 2.65104C84.9972 3.05148 84.2268 3.49717 83.4839 3.98591C82.3801 4.7453 81.3408 5.59447 80.3765 6.52478L10.5102 76.3792C6.87875 80.0403 4.64303 84.8568 4.1907 89.9934C4.09348 90.7038 4.02991 91.4192 4 92.1396C4 92.6033 4.1047 93.067 4.1421 93.5156C4.44657 98.9145 6.72808 104.012 10.5514 107.837C10.7832 108.08 11.045 108.233 11.2656 108.453C14.1507 111.135 17.7036 112.992 21.5526 113.83C26.936 115.072 32.5912 114.178 37.329 111.336C39.0249 110.397 40.589 109.238 41.9807 107.889" fill="white"/>
</g>
<defs>
<filter id="filter0_d_603_41" x="0" y="0" width="192.405" height="192.552" filterUnits="userSpaceOnUse" color-interpolation-filters="sRGB">
<feFlood flood-opacity="0" result="BackgroundImageFix"/>
<feColorMatrix in="SourceAlpha" type="matrix" values="0 0 0 0 0 0 0 0 0 0 0 0 0 0 0 0 0 0 127 0" result="hardAlpha"/>
<feOffset dy="4"/>
<feGaussianBlur stdDeviation="2"/>
<feComposite in2="hardAlpha" operator="out"/>
<feColorMatrix type="matrix" values="0 0 0 0 0 0 0 0 0 0 0 0 0 0 0 0 0 0 0.25 0"/>
<feBlend mode="normal" in2="BackgroundImageFix" result="effect1_dropShadow_603_41"/>
<feBlend mode="normal" in="SourceGraphic" in2="effect1_dropShadow_603_41" result="shape"/>
</filter>
</defs>
</svg>
