<svg width="346" height="344" viewBox="0 0 346 344" fill="none" xmlns="http://www.w3.org/2000/svg">
<path d="M345.013 172C345.013 206.018 334.924 239.273 316.024 267.558C297.123 295.843 270.258 317.889 238.828 330.907C207.397 343.926 172.811 347.332 139.444 340.695C106.077 334.058 75.428 317.677 51.3718 293.622C27.3157 269.568 10.9333 238.92 4.29618 205.556C-2.3409 172.191 1.06551 137.607 14.0846 106.178C27.1037 74.7496 49.1508 47.8868 77.4378 28.9872C105.725 10.0876 138.981 0 173.002 0C218.622 0 262.374 18.1214 294.632 50.3776C326.89 82.6339 345.013 126.383 345.013 172Z" fill="#131D55"/>
<path d="M256.547 154.493C252.672 151.426 247.877 149.752 242.935 149.741C237.61 149.694 232.441 151.541 228.351 154.952C224.26 158.363 221.515 163.116 220.604 168.363C219.694 173.61 220.677 179.01 223.378 183.6C226.08 188.189 230.324 191.67 235.354 193.421C240.384 195.172 245.872 195.079 250.84 193.158C255.808 191.238 259.931 187.616 262.476 182.937C265.02 178.259 265.82 172.829 264.732 167.615C263.644 162.402 260.739 157.745 256.536 154.475" fill="white"/>
<path d="M145.989 183.356L130.216 199.127C124.576 204.815 117.282 208.573 109.377 209.862L157.24 257.753C160.508 261.003 164.705 263.155 169.251 263.912C172.315 264.5 175.475 264.355 178.473 263.489C182.288 262.538 185.782 260.591 188.598 257.847C191.414 255.102 193.45 251.659 194.498 247.87C195.546 244.081 195.569 240.081 194.564 236.28C193.559 232.478 191.562 229.012 188.778 226.236L145.989 183.356Z" fill="white"/>
<path d="M118.781 187.644L134.557 171.873L146.022 160.427L179.677 126.775L188.685 117.756C192.855 113.576 195.197 107.912 195.197 102.007C195.197 96.1023 192.855 90.4384 188.685 86.2579C184.421 82.196 178.796 79.8696 172.908 79.7332C169.307 79.7781 165.769 80.6872 162.591 82.3842C161.798 82.7846 161.027 83.2303 160.284 83.7191C159.18 84.4785 158.141 85.3276 157.177 86.2579L87.3106 156.094C83.6791 159.755 81.4434 164.571 80.991 169.708C80.8938 170.418 80.8303 171.134 80.8004 171.854C80.8004 172.318 80.905 172.781 80.9424 173.23C81.2469 178.629 83.5284 183.727 87.3517 187.551C87.5836 187.794 87.8453 187.947 88.0659 188.168C90.951 190.85 94.504 192.707 98.3529 193.545C103.736 194.786 109.391 193.892 114.129 191.051C115.825 190.112 117.389 188.953 118.781 187.603" fill="white"/>
</svg>
