<svg width="48" height="48" viewBox="0 0 48 48" fill="none" xmlns="http://www.w3.org/2000/svg">
<path d="M45.3598 19.3003C44.3596 18.5087 43.1222 18.0767 41.8467 18.0737C40.4722 18.0617 39.1381 18.5384 38.0824 19.4188C37.0267 20.2991 36.3182 21.5258 36.0831 22.8801C35.848 24.2344 36.1018 25.6281 36.799 26.8127C37.4963 27.9972 38.5918 28.8955 39.89 29.3474C41.1882 29.7993 42.6047 29.7753 43.8868 29.2797C45.169 28.7841 46.2333 27.8491 46.8901 26.6416C47.5468 25.4341 47.7531 24.0326 47.4723 22.6871C47.1915 21.3416 46.4418 20.1395 45.3569 19.2955" fill="#5C70FF"/>
<path d="M16.8249 26.7495L12.7541 30.8201C11.2985 32.2881 9.41577 33.2579 7.37543 33.5908L19.729 45.9513C20.573 46.7907 21.6575 47.3462 22.8319 47.5408C23.6227 47.6927 24.4382 47.6553 25.2119 47.4318C26.1966 47.1863 27.0984 46.6838 27.8251 45.9755C28.5519 45.2672 29.0774 44.3785 29.348 43.4005C29.6185 42.4225 29.6244 41.3901 29.365 40.409C29.1057 39.428 28.5903 38.5334 27.8717 37.8168L16.8249 26.7495Z" fill="#5C70FF"/>
<path d="M9.80275 27.8565L13.8746 23.7859L16.8337 20.827L25.5198 12.1414L27.8448 9.81372C28.9212 8.73474 29.5257 7.27291 29.5257 5.74887C29.5257 4.22484 28.9212 2.76301 27.8448 1.68403C26.7443 0.635659 25.2924 0.0352129 23.7729 0C22.8433 0.0115908 21.9301 0.246247 21.1101 0.684229C20.9052 0.787581 20.7064 0.902613 20.5146 1.02876C20.2297 1.22475 19.9615 1.44392 19.7126 1.68403L1.68028 19.7133C0.743 20.6582 0.165965 21.9014 0.04922 23.2271C0.0241268 23.4105 0.00772098 23.5951 0 23.7811C0 23.9007 0.0270235 24.0204 0.0366748 24.1362C0.115258 25.5296 0.704111 26.8454 1.69089 27.8324C1.75073 27.8951 1.81829 27.9347 1.87523 27.9916C2.61987 28.6838 3.53688 29.1631 4.53029 29.3794C5.91973 29.6999 7.37932 29.4691 8.60214 28.7357C9.03984 28.4934 9.44355 28.1942 9.80275 27.8459" fill="#5C70FF"/>
</svg>
