<svg width="18" height="18" viewBox="0 0 18 18" fill="none" xmlns="http://www.w3.org/2000/svg">
<path d="M6.61639 11.3836L11.3836 6.60938" stroke="#131D55" stroke-linecap="round" stroke-linejoin="round"/>
<path d="M10.1953 12.5789L8.20547 14.5687C7.89199 14.8822 7.51983 15.1309 7.11025 15.3005C6.70067 15.4702 6.26168 15.5575 5.81836 15.5575C4.92302 15.5575 4.06435 15.2019 3.43125 14.5687C2.79815 13.9356 2.44247 13.077 2.44247 12.1816C2.44247 11.2863 2.79815 10.4276 3.43125 9.79453L5.42109 7.80469" stroke="#131D55" stroke-linecap="round" stroke-linejoin="round"/>
<path d="M12.5789 10.1952L14.5687 8.20537C15.2019 7.57227 15.5575 6.7136 15.5575 5.81827C15.5575 4.92293 15.2019 4.06426 14.5687 3.43116C13.9356 2.79806 13.077 2.44238 12.1816 2.44238C11.2863 2.44238 10.4276 2.79806 9.79453 3.43116L7.80469 5.421" stroke="#131D55" stroke-linecap="round" stroke-linejoin="round"/>
</svg>
