<svg width="185" height="185" viewBox="0 0 185 185" fill="none" xmlns="http://www.w3.org/2000/svg">
<path d="M175.746 74.7788C171.871 71.7118 167.077 70.0379 162.135 70.0264C156.809 69.9799 151.64 71.8269 147.55 75.2377C143.46 78.6486 140.715 83.4016 139.804 88.6487C138.893 93.8958 139.876 99.2958 142.578 103.885C145.279 108.475 149.524 111.956 154.554 113.706C159.584 115.457 165.072 115.364 170.04 113.444C175.007 111.524 179.131 107.901 181.676 103.223C184.22 98.5443 185.02 93.1141 183.932 87.9009C182.843 82.6876 179.939 78.0304 175.735 74.7601" fill="#5C70FF"/>
<path d="M65.1883 103.641L49.4157 119.413C43.776 125.1 36.4815 128.858 28.5762 130.148L76.4401 178.039C79.7102 181.291 83.9122 183.443 88.4621 184.197C91.5262 184.785 94.686 184.641 97.6834 183.775C101.499 182.824 104.993 180.877 107.809 178.132C110.624 175.388 112.66 171.945 113.709 168.155C114.757 164.366 114.78 160.366 113.775 156.565C112.77 152.764 110.773 149.298 107.989 146.522L65.1883 103.641Z" fill="#5C70FF"/>
<path d="M37.9807 107.93L53.7571 92.1583L65.222 80.6942L98.8763 47.042L107.884 38.0232C112.055 33.8427 114.397 28.1789 114.397 22.274C114.397 16.3691 112.055 10.7053 107.884 6.52478C103.621 2.46286 97.9955 0.136432 92.108 0C88.5064 0.0449084 84.9682 0.954083 81.7911 2.65104C80.9972 3.05148 80.2268 3.49717 79.4839 3.98591C78.3801 4.7453 77.3408 5.59447 76.3765 6.52478L6.51023 76.3792C2.87875 80.0403 0.64303 84.8568 0.190703 89.9934C0.0934792 90.7038 0.0299149 91.4192 0 92.1396C0 92.6033 0.104703 93.067 0.142096 93.5156C0.446568 98.9145 2.72808 104.012 6.55136 107.837C6.78321 108.08 7.04496 108.233 7.26558 108.453C10.1507 111.135 13.7036 112.992 17.5526 113.83C22.936 115.072 28.5912 114.178 33.329 111.336C35.0249 110.397 36.589 109.238 37.9807 107.889" fill="#5C70FF"/>
</svg>
