<svg width="14" height="14" viewBox="0 0 14 14" fill="none" xmlns="http://www.w3.org/2000/svg">
<path d="M11.9859 2.94554L11.989 2.95016L11.9891 2.95031L11.9891 2.95032L11.9892 2.95046L11.9893 2.95067L11.9894 2.95086L12.117 3.15324L12.3251 3.03351L13.629 2.28331L13.629 7.22859L13.629 7.22808L13.629 7.22749L13.629 7.22791L13.6287 7.23445C13.6284 7.24117 13.6276 7.25151 13.6259 7.26375C13.6253 7.26848 13.6246 7.27311 13.6238 7.2776C13.4315 7.17853 12.6486 6.73583 11.7718 6.23599C10.8525 5.71191 9.84813 5.13555 9.36729 4.85937L9.35664 4.85325L9.34544 4.84821C9.34212 4.84671 9.33887 4.84523 9.33571 4.84377L10.6468 4.08724L10.8977 3.9425L10.7179 3.71548L10.5219 3.8707C10.7179 3.71548 10.7178 3.71543 10.7178 3.71538L10.7177 3.71526L10.7174 3.71495L10.7167 3.71407L10.7145 3.71128L10.7067 3.70163C10.7 3.69343 10.6904 3.68178 10.6779 3.66701C10.653 3.63748 10.6168 3.59545 10.57 3.54376C10.4765 3.44044 10.3404 3.298 10.1682 3.13912C9.82646 2.82386 9.33504 2.43695 8.74515 2.16589C7.48206 1.50694 6.28551 1.43044 4.84763 1.97833C3.94411 2.32233 2.91801 3.15765 2.14683 4.36713L1.05103 3.61651C1.07496 3.5833 1.1019 3.54644 1.13178 3.50632C1.27754 3.31065 1.49286 3.03812 1.76942 2.73316C2.32424 2.12139 3.11732 1.38826 4.08159 0.879137C5.99174 -0.129412 8.35946 0.160541 9.90792 1.14123C10.699 1.64297 11.2238 2.10257 11.5483 2.43273C11.7107 2.59787 11.8231 2.7308 11.8938 2.82062C11.9291 2.86554 11.954 2.8997 11.9695 2.92174C11.9773 2.93276 11.9827 2.94075 11.9859 2.94554ZM13.6069 7.33455C13.6069 7.33454 13.607 7.33419 13.6075 7.33356L13.6069 7.33455ZM13.6785 7.30165C13.6785 7.30166 13.6783 7.30162 13.6777 7.30151L13.6785 7.30165Z" fill="#131D55" stroke="white" stroke-width="0.5"/>
<path d="M1.88959 11.0487L1.76208 10.8464L1.55405 10.9659L0.25 11.7149V6.76886C0.250001 6.76883 0.250001 6.7688 0.250002 6.76878L0.250279 6.76224C0.250648 6.75552 0.251439 6.74518 0.253066 6.73294C0.253695 6.72821 0.254399 6.72358 0.255167 6.71909C0.447541 6.81816 1.2304 7.26086 2.10719 7.7607C3.0265 8.28478 4.03088 8.86114 4.51172 9.13732L4.52237 9.14344L4.53357 9.14848C4.53689 9.14998 4.54014 9.15146 4.54331 9.15292L3.23218 9.90945L2.98133 10.0542L3.16116 10.2812L3.35713 10.126C3.16116 10.2812 3.1612 10.2813 3.16124 10.2813L3.16133 10.2814L3.16157 10.2817L3.16227 10.2826L3.16452 10.2854L3.17234 10.2951C3.17903 10.3033 3.18864 10.3149 3.20109 10.3297C3.22598 10.3592 3.26223 10.4012 3.30903 10.4529C3.40254 10.5562 3.53862 10.6987 3.71083 10.8576C4.05251 11.1728 4.54386 11.5597 5.13365 11.8307C6.39688 12.4926 7.59358 12.5691 9.03145 12.0212C9.93495 11.6772 10.961 10.8418 11.7322 9.6324L12.828 10.383C12.8041 10.4162 12.7771 10.4531 12.7472 10.4932C12.6015 10.6889 12.3862 10.9614 12.1096 11.2664C11.5548 11.8781 10.7617 12.6113 9.79743 13.1204C7.88717 14.129 5.5195 13.8403 3.97122 12.8584C3.18006 12.3566 2.65524 11.897 2.33067 11.5668C2.16834 11.4016 2.05594 11.2687 1.98526 11.1789C1.94992 11.134 1.92499 11.0998 1.90946 11.0778C1.9017 11.0668 1.89629 11.0588 1.89309 11.054L1.88995 11.0492C1.88994 11.0492 1.88994 11.0492 1.88994 11.0492C1.88988 11.0491 1.8899 11.0491 1.88985 11.0491C1.88978 11.049 1.88975 11.0489 1.88972 11.0489C1.8897 11.0488 1.8896 11.0487 1.8896 11.0487C1.88959 11.0487 1.88959 11.0487 1.88959 11.0487ZM0.27154 6.66313C0.27193 6.66243 0.272141 6.66212 0.272148 6.66214C0.272156 6.66216 0.27196 6.66251 0.27154 6.66313ZM0.201284 6.69518C0.200768 6.69511 0.2005 6.69506 0.200495 6.69504C0.20049 6.69503 0.200748 6.69507 0.201284 6.69518Z" fill="#131D55" stroke="white" stroke-width="0.5"/>
</svg>
