<svg width="24" height="24" viewBox="0 0 24 24" fill="none" xmlns="http://www.w3.org/2000/svg">
<circle cx="12" cy="12" r="12" fill="#5C70FF"/>
<path d="M11.688 16.472C11.5813 16.472 11.4907 16.44 11.416 16.376C11.352 16.3013 11.32 16.2107 11.32 16.104V12.776H8.04C7.93333 12.776 7.84267 12.744 7.768 12.68C7.704 12.6053 7.672 12.5147 7.672 12.408V11.896C7.672 11.7893 7.704 11.704 7.768 11.64C7.84267 11.5653 7.93333 11.528 8.04 11.528H11.32V8.296C11.32 8.18933 11.352 8.104 11.416 8.04C11.4907 7.96533 11.5813 7.928 11.688 7.928H12.248C12.3547 7.928 12.44 7.96533 12.504 8.04C12.5787 8.104 12.616 8.18933 12.616 8.296V11.528H15.912C16.0187 11.528 16.104 11.5653 16.168 11.64C16.2427 11.704 16.28 11.7893 16.28 11.896V12.408C16.28 12.5147 16.2427 12.6053 16.168 12.68C16.104 12.744 16.0187 12.776 15.912 12.776H12.616V16.104C12.616 16.2107 12.5787 16.3013 12.504 16.376C12.44 16.44 12.3547 16.472 12.248 16.472H11.688Z" fill="white"/>
</svg>
