<svg width="38" height="38" viewBox="0 0 38 38" fill="none" xmlns="http://www.w3.org/2000/svg">
<circle cx="19" cy="19" r="19" fill="#EAE9F3" stroke-width="1px"/>
<path d="M21.4995 15.2496L14.9911 21.8661C14.7567 22.1006 14.625 22.4185 14.625 22.75C14.625 23.0815 14.7567 23.3995 14.9911 23.6339C15.2255 23.8683 15.5435 24 15.875 24C16.2065 24 16.5245 23.8683 16.7589 23.6339L24.5173 15.7674C24.7495 15.5353 24.9336 15.2597 25.0592 14.9563C25.1849 14.653 25.2495 14.3279 25.2495 13.9996C25.2495 13.6713 25.1849 13.3462 25.0592 13.0429C24.9336 12.7396 24.7495 12.464 24.5173 12.2319C24.2852 11.9997 24.0096 11.8156 23.7063 11.6899C23.4029 11.5643 23.0778 11.4996 22.7495 11.4996C22.4212 11.4996 22.0961 11.5643 21.7928 11.6899C21.4895 11.8156 21.2139 11.9997 20.9818 12.2319L13.2233 20.0984C12.5201 20.8016 12.125 21.7555 12.125 22.75C12.125 23.7446 12.5201 24.6984 13.2233 25.4017C13.9266 26.1049 14.8804 26.5 15.875 26.5C16.8696 26.5 17.8234 26.1049 18.5267 25.4017L24.937 18.9996" stroke="#585F87" stroke-width="1.2" stroke-linecap="round" stroke-linejoin="round"/>
</svg>
