<svg width="32" height="33" viewBox="0 0 32 33" fill="none" xmlns="http://www.w3.org/2000/svg">
<path d="M16 32C24.8366 32 32 24.8366 32 16C32 7.16344 24.8366 0 16 0C7.16344 0 0 7.16344 0 16C0 24.8366 7.16344 32 16 32Z" fill="#CCD1F4"/>
<path d="M16 21.4281C19.4372 21.4281 22.2236 17.8254 22.2236 13.3812C22.2236 8.93697 19.4372 5.33423 16 5.33423C12.5628 5.33423 9.77643 8.93697 9.77643 13.3812C9.77643 17.8254 12.5628 21.4281 16 21.4281Z" fill="white"/>
<path d="M16 22.5769C10.268 22.5769 5.44531 24.2841 4.01727 26.6016C6.94995 29.9123 11.2291 32.0025 16 32.0025C20.7708 32.0025 25.05 29.9123 27.9827 26.6016C26.5546 24.2841 21.7344 22.5769 16 22.5769Z" fill="white"/>
<path d="M16.4348 16H15.5676C14.255 16 13.1909 17.0641 13.1909 18.3768V23.7851C13.1909 25.0977 14.255 26.1618 15.5676 26.1618H16.4348C17.7475 26.1618 18.8116 25.0977 18.8116 23.7851V18.3768C18.8116 17.0641 17.7475 16 16.4348 16Z" fill="white"/>
<path d="M10.7301 14.115C10.9499 15.1971 10.6757 16.1681 10.1149 16.2817C9.55402 16.3954 8.92153 15.6097 8.70164 14.5276C8.48176 13.4454 8.756 12.4744 9.31684 12.3608C9.87768 12.2471 10.5102 13.0328 10.7301 14.115Z" fill="white"/>
<path d="M21.2699 14.115C21.05 15.1971 21.3242 16.1681 21.8851 16.2817C22.4459 16.3954 23.0784 15.6097 23.2983 14.5276C23.5182 13.4454 23.2439 12.4744 22.6831 12.3608C22.1223 12.2471 21.4898 13.0328 21.2699 14.115Z" fill="white"/>
<path d="M23.7727 16.5263C23.6319 14.4509 23.7381 12.3212 23.1031 10.3373C22.4114 8.17547 20.7857 6.36448 18.7721 5.32927C16.2643 4.15571 13.9049 5.03279 13.3663 5.26256C11.2884 6.28294 9.60592 8.12606 8.89931 10.3373C8.26435 12.3188 8.37059 14.4485 8.22976 16.5263C8.08893 18.6041 7.61704 20.803 6.12476 22.2533C6.52994 22.4608 7.07843 22.3398 7.35762 21.9791C7.36256 22.1742 7.36503 22.3694 7.36997 22.5646C7.75045 22.6412 8.16552 22.3744 8.25694 21.9988C8.32117 22.3274 8.64977 22.5819 8.98578 22.5621C9.31932 22.5424 9.6158 22.2508 9.64298 21.9173C9.5985 22.2434 10.0259 22.4682 10.3372 22.3645C10.6485 22.2607 10.8511 21.9667 11.0315 21.69C11.0241 22.1396 11.6294 22.4608 11.9975 22.2014C11.953 22.4435 12.2495 22.6165 12.4966 22.6041C12.7437 22.5918 12.9784 22.4757 13.2254 22.4954C13.7023 22.535 14.1297 23.0661 14.567 22.8685C14.7572 22.782 14.9327 22.5621 15.1254 22.6412C15.2415 22.6881 15.2909 22.824 15.37 22.9228C15.5207 23.1057 15.7776 23.1279 16.0049 23.0464C16.2322 23.1304 16.4892 23.1081 16.6399 22.9228C16.7189 22.8265 16.7684 22.6906 16.8845 22.6412C17.0772 22.5621 17.2526 22.782 17.4429 22.8685C17.8802 23.0637 18.3076 22.5325 18.7844 22.4954C19.029 22.4757 19.2662 22.5918 19.5133 22.6041C19.7603 22.6165 20.0568 22.4435 20.0123 22.2014C20.3805 22.4608 20.9883 22.1396 20.9784 21.69C21.1563 21.9667 21.3589 22.2607 21.6726 22.3645C21.9839 22.4682 22.4114 22.2434 22.3669 21.9173C22.3941 22.2508 22.6905 22.5424 23.0241 22.5621C23.3576 22.5819 23.6862 22.3274 23.7529 21.9988C23.8419 22.3768 24.2594 22.6412 24.6399 22.5646C24.6448 22.3694 24.6473 22.1742 24.6522 21.9791C24.9314 22.3398 25.4774 22.4608 25.8851 22.2533C24.3904 20.803 23.9209 18.6041 23.7801 16.5263H23.7727Z" fill="white"/>
</svg>
