<svg width="19" height="14" viewBox="0 0 19 14" fill="none" xmlns="http://www.w3.org/2000/svg">
<path d="M1.70522 0H13.7234C14.8571 0 15.4286 0.535147 15.4286 1.62358V9.26077C15.4286 10.3401 14.8571 10.8844 13.7234 10.8844H1.70522C0.571428 10.8844 0 10.3401 0 9.26077V1.62358C0 0.535147 0.571428 0 1.70522 0ZM7.70975 7.80045L13.8231 2.78458C14.0408 2.60317 14.2132 2.18594 13.941 1.81406C13.678 1.44218 13.1973 1.43311 12.8798 1.65986L7.70975 5.161L2.54875 1.65986C2.23129 1.43311 1.75057 1.44218 1.48753 1.81406C1.21542 2.18594 1.38776 2.60317 1.60544 2.78458L7.70975 7.80045Z" fill="#5C70FF"/>
<path d="M12.3571 7.2143H11.7857C11.1546 7.2143 10.6428 7.72611 10.6428 8.35716V11.7857C10.6428 12.4168 11.1546 12.9286 11.7857 12.9286H12.3571H12.4285H12.8571H12.9285H16.2143H16.2857H16.7143H16.7857H17.3571C17.9882 12.9286 18.5 12.4168 18.5 11.7857V8.35716C18.5 7.72611 17.9882 7.2143 17.3571 7.2143H16.7857V7.07145C16.7857 6.44039 16.2739 5.92859 15.6428 5.92859H13.5C12.8689 5.92859 12.3571 6.44039 12.3571 7.07145V7.2143Z" stroke="#F6F6F6"/>
<path d="M17.3571 11.9286H17.2143V8.2143H17.3571C17.4359 8.2143 17.5 8.27839 17.5 8.35716V11.7857C17.5 11.8645 17.4359 11.9286 17.3571 11.9286ZM15.7857 11.9286H13.3571V8.2143H13.7143H15.4285H15.7857V11.9286ZM11.9285 8.2143V11.9286H11.7857C11.7069 11.9286 11.6428 11.8645 11.6428 11.7857V8.35716C11.6428 8.27839 11.7069 8.2143 11.7857 8.2143H11.9285Z" fill="#5C70FF" stroke="#5C70FF"/>
</svg>
