<svg width="24" height="24" viewBox="0 0 24 24" fill="none" xmlns="http://www.w3.org/2000/svg">
<path d="M12 0C5.37321 0 0 5.37321 0 12C0 18.6268 5.37321 24 12 24C18.6268 24 24 18.6268 24 12C24 5.37321 18.6268 0 12 0ZM16.4304 16.5589L14.6625 16.5509L12 13.3768L9.34018 16.5482L7.56964 16.5562C7.45179 16.5562 7.35536 16.4625 7.35536 16.342C7.35536 16.2911 7.37411 16.2429 7.40625 16.2027L10.8911 12.0509L7.40625 7.90179C7.37388 7.86253 7.35592 7.81338 7.35536 7.7625C7.35536 7.64464 7.45179 7.54821 7.56964 7.54821L9.34018 7.55625L12 10.7304L14.6598 7.55893L16.4277 7.55089C16.5455 7.55089 16.642 7.64464 16.642 7.76518C16.642 7.81607 16.6232 7.86429 16.5911 7.90446L13.1116 12.0536L16.5938 16.2054C16.6259 16.2455 16.6446 16.2938 16.6446 16.3446C16.6446 16.4625 16.5482 16.5589 16.4304 16.5589Z" fill="#5C70FF"/>
</svg>
