<svg width="26" height="25" viewBox="0 0 26 25" fill="none" xmlns="http://www.w3.org/2000/svg">
<path fill-rule="evenodd" clip-rule="evenodd" d="M19 9.50003C19.0034 10.8199 18.6951 12.1219 18.1 13.3C16.661 16.1794 13.7189 17.9988 10.5 18C9.18013 18.0035 7.87812 17.6951 6.7 17.1L1 19L2.9 13.3C2.30493 12.1219 1.99656 10.8199 2 9.50003C2.00125 6.28112 3.82067 3.33907 6.7 1.90003C7.87812 1.30496 9.18013 0.996587 10.5 1.00003H11C15.3158 1.23813 18.7619 4.68422 19 9.00003V9.50003V9.50003Z" stroke="#131D55" stroke-width="2" stroke-linecap="round" stroke-linejoin="round"/>
<path fill-rule="evenodd" clip-rule="evenodd" d="M21 12C21 10.3431 19.6569 9 18 9C16.3431 9 15 10.3431 15 12V14H13C11.3431 14 10 15.3431 10 17C10 18.6569 11.3431 20 13 20H15V22C15 23.6569 16.3431 25 18 25C19.6569 25 21 23.6569 21 22V20H23C24.6569 20 26 18.6569 26 17C26 15.3431 24.6569 14 23 14H21V12Z" fill="white"/>
<path fill-rule="evenodd" clip-rule="evenodd" d="M19 12C19 11.4477 18.5523 11 18 11C17.4477 11 17 11.4477 17 12V16L13 16C12.4477 16 12 16.4477 12 17C12 17.5523 12.4477 18 13 18L17 18V22C17 22.5523 17.4477 23 18 23C18.5523 23 19 22.5523 19 22V18L23 18C23.5523 18 24 17.5523 24 17C24 16.4477 23.5523 16 23 16L19 16V12Z" fill="#131D55"/>
</svg>
