<svg width="48" height="48" viewBox="0 0 48 48" fill="none" xmlns="http://www.w3.org/2000/svg">
<circle cx="24" cy="24" r="24" fill="#5C70FF"/>
<path d="M24.0014 27.4941C18.5764 27.4941 14 28.3804 14 31.7997C14 35.219 18.6109 36.0778 24.0014 36.0778C29.4251 36.0778 34 35.1916 34 31.7723C34 28.353 29.3891 27.4941 24.0014 27.4941Z" fill="white"/>
<path d="M24.0013 24.235C24.8699 24.2355 25.73 24.065 26.5327 23.7331C27.3353 23.4013 28.0648 22.9146 28.6793 22.3008C29.2939 21.6871 29.7815 20.9584 30.1144 20.1562C30.4473 19.354 30.6189 18.4939 30.6195 17.6254V17.5808C30.6096 15.8258 29.903 14.1466 28.6551 12.9125C27.4073 11.6784 25.7203 10.9905 23.9653 11.0001C23.0963 11.0048 22.2367 11.1807 21.4356 11.5177C20.6345 11.8546 19.9077 12.3461 19.2966 12.964C18.6855 13.582 18.2021 14.3142 17.8741 15.1189C17.546 15.9237 17.3797 16.7852 17.3846 17.6543C17.3941 19.3952 18.0892 21.0622 19.3194 22.2941C20.5497 23.5259 22.2158 24.2232 23.9567 24.235H24.0013Z" fill="white"/>
</svg>
