<svg width="18" height="20" viewBox="0 0 18 20" fill="none" xmlns="http://www.w3.org/2000/svg">
<path d="M11.8125 17.4606H3.9375C3.78832 17.4606 3.64524 17.3951 3.53975 17.2785C3.43426 17.1619 3.375 17.0038 3.375 16.8389V5.64808C3.375 5.48319 3.43426 5.32506 3.53975 5.20846C3.64524 5.09187 3.78832 5.02637 3.9375 5.02637H9.5625L12.375 8.13492V16.8389C12.375 17.0038 12.3157 17.1619 12.2102 17.2785C12.1048 17.3951 11.9617 17.4606 11.8125 17.4606Z" stroke="#131D55" stroke-linecap="round" stroke-linejoin="round"/>
<path d="M5.625 5.02639V3.16126C5.625 2.99637 5.68426 2.83824 5.78975 2.72165C5.89524 2.60505 6.03832 2.53955 6.1875 2.53955H11.8125L14.625 5.6481V14.3521C14.625 14.5169 14.5657 14.6751 14.4602 14.7917C14.3548 14.9083 14.2117 14.9738 14.0625 14.9738H12.375" stroke="#131D55" stroke-linecap="round" stroke-linejoin="round"/>
<path d="M6.1875 11.8652H9.5625" stroke="#131D55" stroke-linecap="round" stroke-linejoin="round"/>
<path d="M6.1875 14.3521H9.5625" stroke="#131D55" stroke-linecap="round" stroke-linejoin="round"/>
</svg>
