<svg width="11" height="18" viewBox="0 0 11 18" fill="none" xmlns="http://www.w3.org/2000/svg">
<path fill-rule="evenodd" clip-rule="evenodd" d="M0.61994 1.17372C0 1.98164 0 3.15442 0 5.5V12.5C0 14.8456 0 16.0184 0.61994 16.8263C0.779541 17.0343 0.965719 17.2205 1.17372 17.3801C1.98164 18 3.15442 18 5.5 18C7.84558 18 9.01836 18 9.82628 17.3801C10.0343 17.2205 10.2205 17.0343 10.3801 16.8263C11 16.0184 11 14.8456 11 12.5V5.5C11 3.15442 11 1.98164 10.3801 1.17372C10.2205 0.965719 10.0343 0.779541 9.82628 0.61994C9.01836 0 7.84558 0 5.5 0C3.15442 0 1.98164 0 1.17372 0.61994C0.965719 0.779541 0.779541 0.965719 0.61994 1.17372ZM1.46667 3.66675C1.46667 2.85673 2.12332 2.20008 2.93334 2.20008H8.06668C8.87669 2.20008 9.53334 2.85673 9.53334 3.66675V8.06675C9.53334 8.87676 8.87669 9.53341 8.06668 9.53341H2.93334C2.12332 9.53341 1.46667 8.87677 1.46667 8.06675V3.66675ZM2.2 10.2668C1.79499 10.2668 1.46667 10.5951 1.46667 11.0001C1.46667 11.4051 1.79499 11.7335 2.2 11.7335H2.93333C3.33834 11.7335 3.66667 11.4051 3.66667 11.0001C3.66667 10.5951 3.33834 10.2668 2.93333 10.2668H2.2ZM1.46667 13.2001C1.46667 12.7951 1.79499 12.4668 2.2 12.4668H2.93333C3.33834 12.4668 3.66667 12.7951 3.66667 13.2001C3.66667 13.6051 3.33834 13.9335 2.93333 13.9335H2.2C1.79499 13.9335 1.46667 13.6051 1.46667 13.2001ZM1.46667 15.4001C1.46667 14.9951 1.79499 14.6668 2.2 14.6668H2.93333C3.33834 14.6668 3.66667 14.9951 3.66667 15.4001C3.66667 15.8051 3.33834 16.1335 2.93333 16.1335H2.2C1.79499 16.1335 1.46667 15.8051 1.46667 15.4001ZM4.4 15.4001C4.4 14.9951 4.72832 14.6668 5.13333 14.6668H5.86667C6.27168 14.6668 6.6 14.9951 6.6 15.4001C6.6 15.8051 6.27168 16.1335 5.86667 16.1335H5.13333C4.72832 16.1335 4.4 15.8051 4.4 15.4001ZM5.13333 12.4668C4.72832 12.4668 4.4 12.7951 4.4 13.2001C4.4 13.6051 4.72832 13.9335 5.13333 13.9335H5.86667C6.27168 13.9335 6.6 13.6051 6.6 13.2001C6.6 12.7951 6.27168 12.4668 5.86667 12.4668H5.13333ZM4.4 11.0001C4.4 10.5951 4.72832 10.2668 5.13333 10.2668H5.86667C6.27168 10.2668 6.6 10.5951 6.6 11.0001C6.6 11.4051 6.27168 11.7335 5.86667 11.7335H5.13333C4.72832 11.7335 4.4 11.4051 4.4 11.0001ZM8.06667 14.6668C7.66166 14.6668 7.33333 14.9951 7.33333 15.4001C7.33333 15.8051 7.66166 16.1335 8.06667 16.1335H8.8C9.20501 16.1335 9.53333 15.8051 9.53333 15.4001C9.53333 14.9951 9.20501 14.6668 8.8 14.6668H8.06667ZM7.33333 13.2001C7.33333 12.7951 7.66166 12.4668 8.06667 12.4668H8.8C9.20501 12.4668 9.53333 12.7951 9.53333 13.2001C9.53333 13.6051 9.20501 13.9335 8.8 13.9335H8.06667C7.66166 13.9335 7.33333 13.6051 7.33333 13.2001ZM8.06667 10.2668C7.66166 10.2668 7.33333 10.5951 7.33333 11.0001C7.33333 11.4051 7.66166 11.7335 8.06667 11.7335H8.8C9.20501 11.7335 9.53333 11.4051 9.53333 11.0001C9.53333 10.5951 9.20501 10.2668 8.8 10.2668H8.06667Z" fill="#5C70FF"/>
</svg>
