<svg width="24" height="24" viewBox="0 0 24 24" fill="none" xmlns="http://www.w3.org/2000/svg">
<path d="M12.375 16.875L9.46872 19.7812C9.25969 19.991 9.0113 20.1574 8.73781 20.271C8.46432 20.3846 8.1711 20.443 7.87497 20.443C7.57884 20.443 7.28562 20.3846 7.01213 20.271C6.73864 20.1574 6.49025 19.991 6.28122 19.7812L4.21872 17.7188C4.00896 17.5097 3.84253 17.2613 3.72897 16.9878C3.6154 16.7144 3.55695 16.4211 3.55695 16.125C3.55695 15.8289 3.6154 15.5356 3.72897 15.2622C3.84253 14.9887 4.00896 14.7403 4.21872 14.5312L7.12497 11.625" stroke="#131D55" stroke-width="2" stroke-linecap="round" stroke-linejoin="round"/>
<path d="M5.25 18.75L2.25 21.75" stroke="#131D55" stroke-width="2" stroke-linecap="round" stroke-linejoin="round"/>
<path d="M21.75 2.25L18.75 5.25" stroke="#131D55" stroke-width="2" stroke-linecap="round" stroke-linejoin="round"/>
<path d="M13.5 13.5L11.25 15.75" stroke="#131D55" stroke-width="2" stroke-linecap="round" stroke-linejoin="round"/>
<path d="M10.5 10.5L8.25 12.75" stroke="#131D55" stroke-width="2" stroke-linecap="round" stroke-linejoin="round"/>
<path d="M16.875 12.375L19.7812 9.46872C19.991 9.25969 20.1574 9.0113 20.271 8.73781C20.3846 8.46432 20.443 8.1711 20.443 7.87497C20.443 7.57884 20.3846 7.28562 20.271 7.01213C20.1574 6.73864 19.991 6.49025 19.7812 6.28122L17.7188 4.21872C17.5097 4.00896 17.2613 3.84253 16.9878 3.72897C16.7144 3.6154 16.4211 3.55695 16.125 3.55695C15.8289 3.55695 15.5356 3.6154 15.2622 3.72897C14.9887 3.84253 14.7403 4.00896 14.5312 4.21872L11.625 7.12497" stroke="#131D55" stroke-width="2" stroke-linecap="round" stroke-linejoin="round"/>
<path d="M10.875 6.375L17.625 13.125" stroke="#131D55" stroke-width="2" stroke-linecap="round" stroke-linejoin="round"/>
<path d="M6.375 10.875L13.125 17.625" stroke="#131D55" stroke-width="2" stroke-linecap="round" stroke-linejoin="round"/>
</svg>
