<svg width="38" height="38" viewBox="0 0 38 38" fill="none" xmlns="http://www.w3.org/2000/svg">
<circle cx="19" cy="19" r="19" fill="#5C70FF"/>
<path d="M22.4501 12.4667L14.9251 14.9667C9.86676 16.6584 9.86676 19.4167 14.9251 21.1L17.1584 21.8417L17.9001 24.075C19.5834 29.1334 22.3501 29.1334 24.0334 24.075L26.5418 16.5584C27.6584 13.1834 25.8251 11.3417 22.4501 12.4667ZM22.7168 16.95L19.5501 20.1334C19.4251 20.2584 19.2668 20.3167 19.1084 20.3167C18.9501 20.3167 18.7918 20.2584 18.6668 20.1334C18.4251 19.8917 18.4251 19.4917 18.6668 19.25L21.8334 16.0667C22.0751 15.825 22.4751 15.825 22.7168 16.0667C22.9584 16.3084 22.9584 16.7084 22.7168 16.95Z" fill="white"/>
</svg>
