<svg width="28" height="35" viewBox="0 0 28 35" fill="none" xmlns="http://www.w3.org/2000/svg">
<path d="M14.0017 21.793C7.49164 21.793 2 22.8564 2 26.9596C2 31.0628 7.53314 32.0933 14.0017 32.0933C20.5101 32.0933 26 31.03 26 26.9268C26 22.8236 20.4669 21.793 14.0017 21.793Z" stroke="white" stroke-width="4"/>
<path d="M14.0017 17.882C15.044 17.8827 16.0761 17.678 17.0393 17.2798C18.0025 16.8816 18.8778 16.2975 19.6153 15.561C20.3527 14.8245 20.9379 13.9501 21.3374 12.9874C21.7369 12.0248 21.9428 10.9927 21.9435 9.95049V9.89698C21.9316 7.79098 21.0837 5.77591 19.5863 4.29501C18.0888 2.81411 16.0645 1.98862 13.9585 2.00012C12.9156 2.00578 11.8841 2.21683 10.9228 2.6212C9.96153 3.02557 9.08933 3.61535 8.35601 4.35685C7.6227 5.09835 7.04263 5.97699 6.64896 6.9427C6.25529 7.90841 6.05573 8.94225 6.06165 9.98511C6.07298 12.0742 6.90717 14.0747 8.38343 15.5529C9.85968 17.0311 11.859 17.8679 13.9481 17.882H14.0017" stroke="white" stroke-width="4"/>
</svg>
