<svg width="20" height="26" viewBox="0 0 20 26" fill="none" xmlns="http://www.w3.org/2000/svg">
<path d="M10.0014 16.4941C4.57636 16.4941 0 17.3804 0 20.7997C0 24.219 4.61095 25.0778 10.0014 25.0778C15.4251 25.0778 20 24.1916 20 20.7723C20 17.353 15.3891 16.4941 10.0014 16.4941Z" fill="white"/>
<path d="M10.0015 13.235C10.87 13.2355 11.7302 13.065 12.5328 12.7331C13.3354 12.4013 14.0649 11.9146 14.6794 11.3008C15.294 10.6871 15.7816 9.95838 16.1145 9.15617C16.4474 8.35396 16.6191 7.49395 16.6196 6.62541V6.58082C16.6097 4.82582 15.9031 3.14659 14.6553 1.91251C13.4074 0.678421 11.7205 -0.00948197 9.96545 9.87505e-05C9.0964 0.00481612 8.23679 0.180689 7.43572 0.517667C6.63465 0.854644 5.90781 1.34612 5.29672 1.96404C4.68562 2.58196 4.20224 3.31416 3.87418 4.11892C3.54611 4.92368 3.37982 5.78521 3.38475 6.65425C3.39419 8.39516 4.08935 10.0622 5.31956 11.2941C6.54978 12.5259 8.2159 13.2232 9.95679 13.235H10.0015Z" fill="white"/>
</svg>
